<svg height="511pt" viewBox="-31 0 511 511.99824" width="511pt" xmlns="http://www.w3.org/2000/svg"><path d="m449.375 224.429688c0-59.949219-23.347656-116.3125-65.734375-158.703126-40.417969-40.417968-93.542969-63.503906-150.363281-65.566406-5.828125-.222656-11.65625-.2109372-17.488282.023438-26.996093 1.054687-53.21875 6.851562-78.058593 17.3125-.320313.136718-.625.296875-.917969.46875-46.21875 19.710937-85.300781 54.753906-109.898438 100.742187-1.941406 3.625-.574218 8.136719 3.050782 10.078125 3.628906 1.941406 8.140625.574219 10.082031-3.054687 21.265625-39.753907 54.121094-70.75 93.125-89.734375v12.554687c0 9.554688 7.773437 17.328125 17.332031 17.328125h108.210938c3.464844 0 6.722656 1.351563 9.175781 3.800782l44.050781 44.054687c2.453125 2.449219 3.800782 5.710937 3.800782 9.175781v33.816406c0 7.445313 2.902343 14.445313 8.164062 19.710938 5.445312 5.441406 12.570312 8.183594 19.710938 8.183594 6.726562 0 13.464843-2.433594 18.816406-7.332032l50.199218-45.9375c7.445313 14.949219 13.15625 30.910157 16.863282 47.613282h-35.535156c-6.707032 0-13.011719 2.609375-17.75 7.347656l-27.578126 27.578125c-2.910156 2.910156-2.910156 7.625 0 10.535156 2.90625 2.90625 7.625 2.90625 10.53125 0l27.578126-27.578125c1.929687-1.929687 4.492187-2.992187 7.21875-2.992187h38.125c1.472656 10.089843 2.21875 20.347656 2.21875 30.574219 0 43.285156-13.105469 84.84375-37.898438 120.179687-.878906 1.25-1.347656 2.746094-1.347656 4.277344v132.71875c0 6.023437-4.902344 10.921875-10.925782 10.921875-6.023437 0-10.921874-4.898438-10.921874-10.921875v-155.378907c0-4.070312-3.269532-7.386718-7.339844-7.445312l-7.367188-.105469c-13.53125-.195312-24.539062-11.363281-24.539062-24.894531v-39.933594c0-2.726562 1.0625-5.289062 2.988281-7.21875 2.910156-2.90625 2.910156-7.621094 0-10.53125-2.90625-2.90625-7.625-2.90625-10.53125 0-4.742187 4.742188-7.351563 11.046875-7.351563 17.75v39.933594c0 21.628906 17.59375 39.476562 39.21875 39.785156l.027344.003906v94.054688c0 6.023438-4.898437 10.925781-10.921875 10.925781-6.023437 0-10.925781-4.902343-10.925781-10.925781 0-4.113281-3.332031-7.445312-7.445312-7.445312-4.113282 0-7.449219 3.332031-7.449219 7.445312v53.980469c0 6.023437-4.898438 10.921875-10.921875 10.921875-6.019532 0-10.921875-4.898438-10.921875-10.921875v-50.859375c0-2.386719-1.140625-4.625-3.074219-6.027344-1.929688-1.402344-4.414062-1.792969-6.683594-1.050781-20.957031 6.835937-42.835937 10.300781-65.035156 10.300781-1.78125 0-3.578125-.023438-5.347656-.070312-2-.023438-3.949219.714843-5.386719 2.113281-1.4375 1.402343-2.246094 3.324219-2.246094 5.335937v44.832032c0 6.023437-4.902343 10.921874-10.925781 10.921874-6.019531 0-10.921875-4.898437-10.921875-10.921874v-48.890626c0-3.558593-2.511719-6.617187-6.003906-7.304687-3.839844-.761719-7.683594-1.644531-11.496094-2.621094v-139.910156c0-.726563.589844-1.316406 1.316406-1.316406.726563 0 1.316407.589843 1.316407 1.316406v97.953125c0 14.238281 11.582031 25.816406 25.816406 25.816406 14.238281 0 25.820312-11.578125 25.820312-25.816406v-58.382812c3.304688 1.523437 6.996094 2.375 10.894532 2.375 14.234374 0 25.816406-11.582032 25.816406-25.820313v-88.183594c0-.226562-.007813-.453125-.03125-.675781.378906-10.574219-3.503906-20.972656-10.757813-28.695312l-28.96875-30.835938c-3.515625-3.742188-8.785156-5.265625-13.757812-3.972656-4.4375 1.15625-7.992188 4.390625-9.589844 8.617187l-14.96875-14.96875c-1.003906-1-.726563-2.597656.148437-3.527343l28.058594-29.722657c.796875 1.609375 1.851563 3.121094 3.1875 4.457031l18.640625 18.640626c3.875 3.875 9.078125 5.988281 14.445313 5.988281 1.304687 0 2.621094-.125 3.929687-.378907 6.6875-1.304687 12.265625-5.832031 14.917969-12.109374l3.597656-8.515626c3.257813-7.703124 1.539063-16.503906-4.375-22.417968l-16.785156-16.78125c-3.289062-3.292969-7.851562-5.09375-12.492188-4.976563-4.648437.125-9.097656 2.1875-12.203124 5.652344l-7.246094 8.09375c-.292969-.578125-.609375-1.144531-.976563-1.6875-3.15625-4.703125-8.40625-7.507813-14.050781-7.507813h-80.589844c-21.332031 0-38.9375 17.355469-39.246094 38.683594-.199218 13.816406 4.5625 27.269532 13.414063 37.878906l23.082031 27.675782v156.265625c0 4.113281 3.335938 7.445312 7.449219 7.445312 4.109375 0 7.445313-3.332031 7.445313-7.445312v-158.960938c0-1.746093-.609376-3.433593-1.726563-4.769531l-24.8125-29.75c-6.570313-7.875-10.105469-17.863281-9.960937-28.121094.191406-13.238281 11.117187-24.007812 24.355468-24.007812h80.589844c2.015625.410156 2.4375 1.605468 1.253906 3.585937l-30.667968 32.492188c-3.210938 3.253906-4.976563 7.558593-4.976563 12.136719 0 4.613281 1.796875 8.953124 5.058594 12.21875l16.082031 16.082031c3.546875 3.542969 8.75 4.914062 13.582031 3.574219 4.332031-1.199219 7.800781-4.421876 9.347657-8.585938l27.949218 29.753906c4.707032 5.007813 7.144532 11.816406 6.695313 18.6875-.035157.503906-.011719 1.003906.058593 1.496094v87.171875c0 6.023437-4.902343 10.925781-10.925781 10.925781-5.9375 0-10.726562-4.660156-10.898437-10.605468-.117188-4.070313-3.496094-7.339844-7.550782-7.234376-4.070312.058594-7.339843 3.375-7.339843 7.445313v81.296875c0 6.023438-4.898438 10.925781-10.921875 10.925781-6.023438 0-10.925782-4.902343-10.925782-10.925781v-97.953125c0-8.9375-7.269531-16.210937-16.207031-16.210937-8.941406 0-16.210937 7.273437-16.210937 16.210937v194.15625c0 6.023437-4.902344 10.921875-10.921875 10.921875-6.023438 0-10.925781-4.898438-10.925781-10.921875v-108.929687c0-4.113282-3.332032-7.445313-7.445313-7.445313s-7.449219 3.332031-7.449219 7.445313v33.683593c-12.351562-7.074219-23.992187-15.390625-34.703125-24.851562-2.191406-1.941407-5.320312-2.414063-7.992187-1.207031-2.667969 1.203124-4.382813 3.859374-4.382813 6.789062v10.015625c0 6.023437-4.902343 10.921875-10.925781 10.921875s-10.921875-4.898438-10.921875-10.921875v-51.976563c0-1.476562-.4375-2.921874-1.261719-4.148437-23.152344-34.523437-35.390625-74.824219-35.390625-116.554687 0-24.40625 4.15625-48.308594 12.347657-71.050782 1.394531-3.867187-.609376-8.136718-4.480469-9.53125-3.867188-1.390625-8.136719.613282-9.53125 4.484375-8.78125 24.363281-13.230469 49.964844-13.230469 76.097657 0 43.929687 12.664062 86.390624 36.652344 122.949218v49.730469c0 14.234375 11.582031 25.816406 25.816406 25.816406 12.414062 0 22.808594-8.804687 25.269531-20.5 10.289063 7.917969 21.25 14.917969 32.734375 20.929688v58.25c0 14.238281 11.582032 25.820312 25.820313 25.820312 14.234375 0 25.816406-11.582031 25.816406-25.820312v-38.910157c.867187.207032 1.734375.429688 2.605469.625v42.859376c0 14.238281 11.582031 25.820312 25.816406 25.820312s25.816406-11.582031 25.816406-25.820312v-37.324219c19.695313-.164063 39.144532-2.882813 57.988282-8.089844v40.839844c0 14.238281 11.582031 25.820312 25.816406 25.820312 14.238281 0 25.816406-11.582031 25.816406-25.820312v-30.585938c3.320312 1.554688 7.023438 2.425781 10.925781 2.425781 3.902344 0 7.601563-.875 10.921875-2.433593v30.59375c0 14.238281 11.582032 25.820312 25.816406 25.820312 14.234376 0 25.816407-11.582031 25.816407-25.820312v-130.125c25.792969-37.476563 39.425781-81.355469 39.425781-127.050781zm-222.015625-121.796876 10.324219-11.523437c.5-.558594 1.101562-.691406 1.515625-.703125h.0625c.410156 0 .980469.113281 1.488281.621094l16.78125 16.78125c1.609375 1.605468 2.074219 3.996094 1.191406 6.089844l-3.601562 8.515624c-1.039063 2.457032-3.179688 3.117188-4.050782 3.285157-.875.171875-3.101562.363281-4.988281-1.523438l-18.640625-18.636719c-.792968-.792968-.828125-2.070312-.082031-2.90625zm125.015625 63.667969c-5.132812 4.699219-13.011719 4.527344-17.933594-.398437-2.453125-2.449219-3.800781-5.710938-3.800781-9.175782v-33.816406c0-7.445312-2.902344-14.445312-8.164063-19.710937l-44.054687-44.054688c-5.265625-5.261719-12.265625-8.160156-19.707031-8.160156h-108.210938c-1.34375 0-2.4375-1.09375-2.4375-2.4375v-19.097656c21.644532-8.523438 44.851563-13.492188 68.796875-14.40625.53125-.019531 1.066407-.039063 1.601563-.054688.722656-.023437 1.445312-.042969 2.167968-.054687 1.316407-.027344 2.632813-.046875 3.949219-.046875.070313 0 .140625-.003907.210938-.003907.230469 0 .460937.007813.691406.007813 1.253906.003906 2.503906.023437 3.753906.046875.703125.015625 1.402344.03125 2.101563.054688.617187.015624 1.234375.046874 1.851562.070312 70.941406 2.851562 135.820313 41.570312 172.050782 102.859375zm0 0"/></svg>